<svg width="150" height="151" viewBox="0 0 150 151" fill="none" xmlns="http://www.w3.org/2000/svg">
<path d="M101.074 54.3633L104.297 57.5859C105.176 58.4648 105.176 59.9297 104.297 61.1016L67.9688 97.4297C67.3828 98.0156 66.7969 98.0156 66.2109 98.0156C65.625 98.0156 65.0391 98.0156 64.4531 97.4297L45.4102 78.0938C44.5312 77.2148 44.5312 75.75 45.4102 74.8711L48.6328 71.6484C49.2188 71.0625 49.8047 71.0625 50.3906 71.0625C50.9766 71.0625 51.5625 71.3555 51.8555 71.6484L66.2109 85.7109L97.8516 54.3633C98.1445 53.7773 98.7305 53.7773 99.3164 53.7773C99.9023 53.7773 100.781 54.0703 101.074 54.3633ZM150 75.75C150 86.2969 144.141 95.9648 135.352 100.945C137.988 110.906 135.352 121.453 128.027 128.777C120.117 136.688 109.57 139.031 99.9023 136.395C94.9219 145.184 85.2539 150.75 75 150.75C64.4531 150.75 54.7852 145.184 49.8047 136.395C40.4297 139.031 29.5898 136.688 21.9727 128.777C14.3555 121.453 11.7188 110.906 14.3555 100.945C5.56641 95.9648 0 86.2969 0 75.75C0 65.4961 5.56641 55.8281 14.3555 50.8477C11.7188 40.8867 14.3555 30.3398 21.9727 22.7227C29.2969 15.3984 39.8438 12.7617 49.8047 15.3984C54.7852 6.60938 64.4531 0.75 75 0.75C85.2539 0.75 94.9219 6.60938 99.9023 15.3984C109.863 12.7617 120.41 15.3984 128.027 22.7227C135.352 30.3398 137.988 40.8867 135.352 50.8477C144.141 55.8281 150 65.4961 150 75.75ZM123.047 95.9648C125.977 94.793 140.625 91.2773 140.625 75.75C140.625 60.8086 126.855 57.293 123.047 55.8281C124.512 53.1914 132.129 40.3008 121.289 29.4609C110.742 18.9141 98.4375 25.9453 94.9219 27.7031C93.75 24.7734 90.2344 10.125 75 10.125C60.0586 10.125 56.25 23.8945 54.7852 27.7031C52.1484 26.2383 39.2578 18.6211 28.418 29.4609C17.8711 40.0078 24.9023 52.3125 26.6602 55.8281C23.7305 57 9.375 60.5156 9.375 75.75C9.375 90.6914 23.1445 94.5 26.6602 95.9648C25.1953 98.6016 17.5781 111.492 28.418 122.332C36.9141 130.828 45.4102 128.484 54.7852 124.09C55.957 127.02 59.4727 141.375 75 141.375C89.9414 141.375 93.457 127.605 94.9219 124.09C104.297 128.484 112.793 130.828 121.289 122.332C131.836 111.785 124.805 99.4805 123.047 95.9648Z" fill="#C4C4C4"/>
</svg>
