<svg width="91" height="132" viewBox="0 0 91 132" fill="none" xmlns="http://www.w3.org/2000/svg">
<path d="M88.8945 121.121L90.0664 125.516C90.3594 127.273 89.1875 129.324 87.4297 129.617C83.9141 130.496 78.3477 131.375 71.9023 131.375C40.8477 131.375 17.4102 112.918 11.2578 84.5H3.64062C1.58984 84.5 0.125 83.0352 0.125 80.9844V78.6406C0.125 76.8828 1.58984 75.125 3.64062 75.125H9.79297C9.5 71.0234 9.20703 61.6484 9.79297 56.375H3.64062C1.58984 56.375 0.125 54.9102 0.125 52.8594V50.5156C0.125 48.7578 1.58984 47 3.64062 47H11.5508C18.582 20.3398 42.0195 0.125 71.9023 0.125C77.4688 0.125 82.1562 1.00391 85.0859 1.58984C87.1367 1.88281 88.3086 3.93359 88.0156 5.98438L86.8438 10.3789C86.2578 12.1367 84.5 13.3086 82.7422 13.0156C80.1055 12.4297 76.0039 11.8438 71.6094 11.8438C48.4648 11.8438 30.8867 26.4922 25.0273 47H75.7109C77.7617 47 79.5195 49.0508 79.2266 51.3945L78.6406 53.7383C78.3477 55.2031 76.8828 56.375 75.125 56.375H22.9766C22.0977 62.5273 22.0977 69.2656 22.6836 75.125H70.7305C72.7812 75.125 74.5391 77.1758 73.9531 79.5195L73.6602 81.8633C73.3672 83.3281 71.9023 84.5 70.1445 84.5H24.7344C30.3008 106.18 48.1719 119.949 71.9023 119.949C77.1758 119.949 81.8633 119.07 84.793 118.484C86.5508 117.898 88.6016 119.07 88.8945 121.121Z" fill="#C4C4C4"/>
</svg>
