<svg width="147" height="132" viewBox="0 0 147 132" fill="none" xmlns="http://www.w3.org/2000/svg">
<path d="M3.82422 32.0586L2.06641 30.3008C1.48047 29.7148 0.894531 28.8359 0.894531 27.957C0.894531 27.0781 1.48047 25.9062 2.06641 25.3203L26.6758 1.29688C27.2617 0.710938 28.4336 0.125 29.3125 0.125C29.8984 0.125 31.0703 0.710938 31.6562 1.29688L56.2656 25.3203C56.8516 25.9062 57.4375 27.0781 57.4375 27.957C57.4375 28.8359 56.8516 29.7148 56.2656 30.3008L54.5078 32.0586C53.9219 32.6445 53.043 32.9375 52.1641 32.9375C51.2852 32.9375 50.1133 32.6445 49.5273 32.0586L34 16.8242V129.031C34 130.496 32.8281 131.375 31.6562 131.375H26.9688C25.5039 131.375 24.625 130.496 24.625 129.031V16.5312L8.51172 32.0586C8.21875 32.6445 7.04688 32.9375 6.16797 32.9375C5.28906 32.9375 4.41016 32.6445 3.82422 32.0586ZM138.297 0.125C142.691 0.125 146.5 3.93359 146.5 8.32812V57.5469C146.5 62.2344 142.691 65.75 138.297 65.75H79.7031C75.0156 65.75 71.5 62.2344 71.5 57.5469V8.32812C71.5 3.93359 75.0156 0.125 79.7031 0.125H138.297ZM137.125 56.375V9.5H80.875V56.375H137.125ZM121.891 84.5C125.113 84.5 127.75 87.1367 127.75 90.3594V125.516C127.75 129.031 125.113 131.375 121.891 131.375H77.3594C73.8438 131.375 71.5 129.031 71.5 125.516V90.3594C71.5 87.1367 73.8438 84.5 77.3594 84.5H121.891ZM118.375 122V93.875H80.875V122H118.375Z" fill="#C4C4C4"/>
</svg>
