<svg width="133" height="151" viewBox="0 0 133 151" fill="none" xmlns="http://www.w3.org/2000/svg">
<path d="M114.547 98.6016L130.953 108.27C132.125 108.855 132.418 110.32 131.832 111.492L129.488 115.301C128.902 116.473 127.438 117.059 126.266 116.18L109.859 106.805L113.961 122.332C114.254 123.504 113.668 124.969 112.496 125.262L107.809 126.434C106.637 126.727 105.465 125.848 105.172 124.676L98.4336 100.066L71.1875 83.9531V116.18L88.7656 134.051C89.9375 135.223 89.9375 136.688 88.7656 137.566L85.543 140.789C84.6641 141.668 83.1992 141.668 82.3203 140.789L70.8945 129.363V148.406C70.8945 149.871 70.0156 150.75 68.8438 150.75H64.1562C62.6914 150.75 61.8125 149.871 61.8125 148.406V129.363L50.3867 140.789C49.5078 141.668 48.043 141.668 47.1641 140.789L43.9414 137.566C43.0625 136.688 43.0625 135.223 43.9414 134.051L61.8125 116.18V83.9531L34.2734 100.066L27.8281 124.676C27.5352 125.848 26.0703 126.727 24.8984 126.434L20.5039 125.262C19.332 124.969 18.4531 123.504 18.7461 122.332L22.8477 106.805L6.44141 116.18C5.5625 116.766 4.09766 116.473 3.51172 115.301L1.16797 111.199C0.289062 110.32 0.875 108.855 2.04688 108.27L18.1602 98.6016L2.92578 94.5C1.75391 94.207 0.875 92.7422 1.16797 91.5703L2.33984 86.8828C2.63281 85.7109 4.09766 85.125 5.26953 85.418L29.5859 91.8633L57.125 75.75L29.5859 59.9297L5.26953 66.375C4.09766 66.668 2.63281 66.082 2.33984 64.9102L1.16797 60.2227C0.875 59.0508 1.75391 57.5859 2.92578 57.293L18.1602 53.1914L1.75391 43.5234C0.875 42.9375 0.289062 41.4727 1.16797 40.3008L3.21875 36.1992C4.09766 35.3203 5.26953 34.7344 6.44141 35.3203L22.8477 44.9883L18.7461 29.4609C18.4531 28.2891 19.0391 26.8242 20.5039 26.5312L24.8984 25.3594C26.0703 25.0664 27.5352 25.6523 27.8281 27.1172L34.2734 51.7266L61.8125 67.8398V35.6133L43.9414 17.4492C43.0625 16.5703 43.0625 15.1055 43.9414 14.2266L47.1641 11.0039C48.043 10.125 49.5078 10.125 50.3867 11.0039L61.8125 22.4297V3.09375C61.8125 1.92188 62.6914 0.75 64.1562 0.75H68.5508C70.0156 0.75 70.8945 1.92188 70.8945 3.09375V22.4297L82.3203 11.0039C83.1992 10.125 84.6641 10.125 85.543 11.0039L88.7656 14.2266C89.6445 15.1055 89.6445 16.5703 88.7656 17.4492L70.8945 35.6133V67.8398L98.4336 51.7266L104.879 27.1172C105.172 25.6523 106.637 25.0664 107.809 25.3594L112.203 26.5312C113.668 26.8242 114.254 28.2891 113.961 29.4609L109.859 44.9883L126.266 35.6133C127.438 34.7344 128.609 35.3203 129.488 36.1992L131.539 40.3008C132.418 41.4727 131.832 42.9375 130.953 43.5234L114.547 53.1914L129.781 57.293C131.246 57.5859 131.832 59.0508 131.539 60.2227L130.367 64.9102C130.074 66.082 128.609 66.668 127.438 66.375L103.121 59.9297L75.582 75.75L103.121 91.8633L127.438 85.418C128.609 85.125 130.074 85.7109 130.367 86.8828L131.539 91.5703C131.832 92.7422 131.246 94.207 129.781 94.5L114.547 98.6016Z" fill="#C4C4C4"/>
</svg>
