<svg width="133" height="132" viewBox="0 0 133 132" fill="none" xmlns="http://www.w3.org/2000/svg">
<path d="M79.6836 9.5L77.9258 6.57031L73.8242 0.125H113.375C123.629 0.125 132.125 8.62109 132.125 18.875V112.625C132.125 123.172 123.629 131.375 113.375 131.375H19.625C9.07812 131.375 0.875 123.172 0.875 112.625V18.875C0.875 8.62109 9.07812 0.125 19.625 0.125H58.8828L54.7812 6.57031L53.0234 9.5H19.625C14.3516 9.5 10.25 13.8945 10.25 18.875V93.875C16.1094 93.875 22.2617 91.2383 27.2422 87.7227C29.293 86.2578 31.0508 84.793 32.8086 83.0352C36.0312 80.3984 40.4258 80.3984 43.6484 83.0352C45.4062 84.793 47.1641 86.2578 49.2148 87.7227C54.1953 91.2383 60.3477 93.875 66.5 93.875C72.3594 93.875 78.5117 91.2383 83.4922 87.7227C85.543 86.2578 87.3008 84.793 89.0586 83.0352C92.2812 80.3984 96.6758 80.3984 99.8984 83.0352C101.656 84.793 103.414 86.2578 105.465 87.7227C110.445 90.9453 116.598 93.875 122.75 93.875V18.875C122.75 13.8945 118.355 9.5 113.375 9.5H79.6836ZM10.25 103.25V112.625C10.25 117.898 14.3516 122 19.625 122H113.375C118.355 122 122.75 117.898 122.75 112.625V103.25C113.668 103.25 105.758 99.1484 100.191 95.6328C97.8477 93.875 96.0898 92.4102 94.625 90.9453C92.8672 92.4102 91.1094 93.875 88.7656 95.6328C83.1992 99.1484 75.2891 103.25 66.5 103.25C57.418 103.25 49.5078 99.1484 43.9414 95.6328C41.5977 93.875 39.8398 92.4102 38.375 90.9453C36.6172 92.4102 34.8594 93.875 32.5156 95.6328C26.9492 99.1484 19.0391 103.25 10.25 103.25ZM70.0156 11.5508L83.7852 32.3516C86.1289 35.8672 87.5938 39.9688 87.5938 44.3633V44.6562C87.5938 56.375 77.9258 65.75 66.5 65.75C54.7812 65.75 45.4062 56.375 45.4062 44.6562V44.3633C45.4062 39.9688 46.5781 35.8672 48.9219 32.3516L62.6914 11.5508C63.5703 10.3789 65.0352 9.5 66.5 9.5C67.9648 9.5 69.1367 10.3789 70.0156 11.5508ZM66.5 22.9766L56.832 37.625C55.3672 39.3828 54.7812 42.0195 54.7812 44.3633V44.6562C54.7812 51.3945 59.7617 56.375 66.5 56.375C72.9453 56.375 78.2188 51.3945 78.2188 44.6562V44.3633C78.2188 42.0195 77.3398 39.3828 76.168 37.625L66.5 22.9766Z" fill="#C4C4C4"/>
</svg>
