<svg width="132" height="151" viewBox="0 0 132 151" fill="none" xmlns="http://www.w3.org/2000/svg">
<path d="M33.1875 127.312C27.9141 127.312 23.8125 123.211 23.8125 117.938V108.562C23.8125 103.582 27.9141 99.1875 33.1875 99.1875H42.5625C47.543 99.1875 51.9375 103.582 51.9375 108.562V117.938C51.9375 123.211 47.543 127.312 42.5625 127.312H33.1875ZM33.1875 108.562V117.938H42.5625V108.562H33.1875ZM33.1875 52.3125C27.9141 52.3125 23.8125 48.2109 23.8125 42.9375V33.5625C23.8125 28.582 27.9141 24.1875 33.1875 24.1875H42.5625C47.543 24.1875 51.9375 28.582 51.9375 33.5625V42.9375C51.9375 48.2109 47.543 52.3125 42.5625 52.3125H33.1875ZM33.1875 33.5625V42.9375H42.5625V33.5625H33.1875ZM122.25 0.75C127.23 0.75 131.625 5.14453 131.625 10.125V141.375C131.625 146.648 127.23 150.75 122.25 150.75H9.75C4.47656 150.75 0.375 146.648 0.375 141.375V10.125C0.375 5.14453 4.47656 0.75 9.75 0.75H122.25ZM122.25 141.375V10.125H9.75V141.375H122.25ZM63.6562 42.9375C62.1914 42.9375 61.3125 42.0586 61.3125 40.5938V35.9062C61.3125 34.7344 62.1914 33.5625 63.6562 33.5625H101.156C102.328 33.5625 103.5 34.7344 103.5 35.9062V40.5938C103.5 42.0586 102.328 42.9375 101.156 42.9375H63.6562ZM63.6562 80.4375C62.1914 80.4375 61.3125 79.5586 61.3125 78.0938V73.4062C61.3125 72.2344 62.1914 71.0625 63.6562 71.0625H101.156C102.328 71.0625 103.5 72.2344 103.5 73.4062V78.0938C103.5 79.5586 102.328 80.4375 101.156 80.4375H63.6562ZM63.6562 117.938C62.1914 117.938 61.3125 117.059 61.3125 115.594V110.906C61.3125 109.734 62.1914 108.562 63.6562 108.562H101.156C102.328 108.562 103.5 109.734 103.5 110.906V115.594C103.5 117.059 102.328 117.938 101.156 117.938H63.6562ZM34.9453 84.832L24.1055 73.6992C23.5195 73.1133 23.5195 72.2344 24.1055 71.6484L27.9141 67.8398C28.5 67.2539 29.3789 67.2539 30.2578 67.8398L36.1172 73.9922L50.1797 60.2227C50.7656 59.6367 51.6445 59.6367 52.2305 60.2227L56.0391 64.0312C56.625 64.6172 56.625 65.4961 56.0391 66.082L37.2891 84.832C36.7031 85.418 35.5312 85.418 34.9453 84.832Z" fill="#C4C4C4"/>
</svg>
