<svg width="151" height="134" viewBox="0 0 151 134" fill="none" xmlns="http://www.w3.org/2000/svg">
<path d="M84.875 16.7734L83.7031 21.7539C80.4805 33.4727 72.8633 43.7266 62.6094 50.1719L61.7305 50.7578C59.3867 52.2227 57.3359 54.2734 55.5781 56.6172C54.1133 58.668 51.1836 59.2539 49.1328 57.7891C47.082 56.0312 46.4961 53.1016 47.9609 51.0508C50.3047 47.8281 53.2344 45.1914 56.75 42.8477L57.6289 42.2617C65.832 36.9883 71.9844 28.7852 74.6211 19.1172L75.793 14.4297C78.4297 5.64062 87.2188 0.367188 96.0078 2.71094C104.797 5.34766 110.07 14.1367 107.727 22.9258L106.262 27.9062C105.09 32.0078 103.625 35.8164 101.867 39.625H131.75C142.004 39.625 150.5 48.1211 150.5 58.375C150.5 63.6484 148.156 68.3359 144.934 71.8516C145.52 73.6094 145.812 75.3672 145.812 77.125C145.812 82.6914 143.176 87.6719 139.66 91.1875C140.539 93.2383 141.125 95.875 141.125 98.2188C141.125 105.25 137.316 111.402 131.75 114.625C131.75 125.172 123.254 133.375 113 133.375H86.6328C80.1875 133.375 73.7422 131.617 68.4688 128.102L57.043 120.484C53.5273 117.848 50.3047 114.918 47.9609 111.109C46.4961 109.059 47.082 106.129 49.4258 104.664C51.4766 103.199 54.4062 103.785 55.8711 106.129C57.6289 108.766 59.6797 110.816 62.3164 112.574L73.7422 120.191C77.5508 122.828 81.9453 124 86.6328 124H113C117.98 124 122.375 119.898 122.375 114.625C122.375 114.039 122.082 113.453 122.082 112.867C121.496 110.523 122.961 108.18 125.305 107.301C128.82 106.129 131.75 102.613 131.75 98.5117C131.75 96.168 130.871 94.1172 129.699 92.6523C128.82 91.4805 128.527 90.3086 128.82 88.8438C129.113 87.3789 129.992 86.207 131.164 85.6211C134.387 84.1562 136.438 80.9336 136.438 77.418C136.438 75.6602 135.852 73.9023 134.973 72.7305C133.801 70.3867 134.68 67.75 136.73 66.5781C139.367 64.8203 141.125 61.8906 141.125 58.668C141.125 53.3945 136.73 49.293 131.75 49.293H93.957C92.1992 49.293 90.7344 48.1211 89.8555 46.6562C88.9766 45.1914 88.9766 43.4336 89.8555 41.9688C93.0781 36.9883 95.7148 31.1289 97.1797 25.2695L98.6445 20.582C99.5234 16.7734 97.4727 12.9648 93.6641 11.793C89.8555 10.9141 86.0469 12.9648 84.875 16.7734ZM9.875 58.375V124H28.625V58.375H9.875ZM0.5 58.375C0.5 53.3945 4.60156 49 9.875 49H28.625C33.6055 49 38 53.3945 38 58.375V124C38 129.273 33.6055 133.375 28.625 133.375H9.875C4.60156 133.375 0.5 129.273 0.5 124V58.375Z" fill="#C4C4C4"/>
</svg>
