<svg width="148" height="152" viewBox="0 0 148 152" fill="none" xmlns="http://www.w3.org/2000/svg">
<path d="M75 6.09375C114.844 6.38672 147.656 38.9062 147.656 79.043C147.363 119.18 114.844 151.406 75 151.406C56.25 151.406 38.9648 144.375 26.0742 132.949C24.6094 131.484 24.6094 129.141 26.0742 127.676L28.125 125.625C29.2969 124.453 31.6406 124.16 32.8125 125.625C44.2383 135.879 59.1797 141.445 75 141.445C109.57 141.445 137.695 113.613 137.695 78.75C137.695 44.1797 109.57 16.0547 75 16.0547C61.2305 16.0547 48.3398 20.4492 37.793 28.3594L53.3203 44.1797C59.1797 50.0391 55.0781 60 46.875 60H9.375C4.10156 60 0 55.8984 0 50.625V13.125C0 4.92188 9.96094 0.820312 15.8203 6.67969L30.4688 21.3281C42.7734 11.9531 58.3008 6.09375 75 6.09375ZM46.875 50.625L9.375 13.125V50.625H46.875Z" fill="#C4C4C4"/>
</svg>
