<svg width="189" height="152" viewBox="0 0 189 152" fill="none" xmlns="http://www.w3.org/2000/svg">
<path d="M99.4805 80.4375C125.848 80.4375 150.75 90.6914 150.75 110.613C150.75 134.637 118.816 150.75 86.5898 150.75C73.9922 150.75 64.3242 148.699 54.9492 145.77L38.25 141.375H19.5C8.95312 141.375 0.75 132 0.75 120.867C0.75 109.734 8.95312 100.652 19.5 100.652H38.25C55.8281 100.652 61.3945 95.6719 68.7188 90.6914C77.2148 84.832 89.2266 80.4375 99.4805 80.4375ZM33.5625 132V110.027H19.5C14.2266 110.027 10.125 114.715 10.125 120.867C10.125 126.727 14.2266 132 19.5 132H33.5625ZM57.293 136.688C105.633 151.043 141.375 129.07 141.375 110.613C141.375 93.6211 99.7734 80.1445 73.1133 99.1875C66.375 103.875 59.0508 109.148 42.9375 109.734V133.172L57.293 136.688ZM124.09 0.75C156.902 0.75 188.25 17.1562 188.25 41.1797C188.25 61.1016 163.348 71.0625 136.98 71.0625C126.727 71.0625 114.715 66.9609 106.219 61.1016C98.8945 56.1211 93.3281 51.1406 75.75 51.1406H57C46.4531 51.1406 38.25 42.0586 38.25 30.9258C38.25 19.793 46.4531 10.125 57 10.125H75.75L92.4492 6.02344C101.824 3.09375 111.199 0.75 124.09 0.75ZM71.0625 41.7656V19.5H57C51.7266 19.5 47.625 25.0664 47.625 30.9258C47.625 37.0781 51.7266 41.7656 57 41.7656H71.0625ZM136.98 61.6875C157.781 61.6875 178.875 54.6562 178.875 41.1797C178.875 18.0352 139.324 10.125 124.09 10.125C112.371 10.125 103.875 12.4688 95.0859 14.8125L80.4375 18.6211V42.0586C97.4297 42.9375 104.754 48.5039 111.785 53.4844C118.816 58.4648 128.777 61.6875 136.98 61.6875Z" fill="#C4C4C4"/>
</svg>
