<svg width="151" height="151" viewBox="0 0 151 151" fill="none" xmlns="http://www.w3.org/2000/svg">
<path d="M75.5 0.75C77.8438 0.75 80.1875 3.09375 80.1875 5.4375V71.0625H145.812C148.156 71.0625 150.5 73.4062 150.5 75.75C150.5 78.3867 148.156 80.4375 145.812 80.4375H80.1875V146.062C80.1875 148.699 77.8438 150.75 75.5 150.75C72.8633 150.75 70.8125 148.699 70.8125 146.062V80.4375H5.1875C2.55078 80.4375 0.5 78.3867 0.5 75.75C0.5 73.4062 2.55078 71.0625 5.1875 71.0625H70.8125V5.4375C70.8125 3.09375 72.8633 0.75 75.5 0.75ZM101.281 28.875H113V17.1562V14.8125C113 12.4688 115.051 10.125 117.688 10.125C120.031 10.125 122.375 12.4688 122.375 14.8125V17.1562V28.875H134.094H136.438C138.781 28.875 141.125 31.2188 141.125 33.5625C141.125 36.1992 138.781 38.25 136.438 38.25H134.094H122.375V49.9688V52.3125C122.375 54.9492 120.031 57 117.688 57C115.051 57 113 54.9492 113 52.3125V49.9688V38.25H101.281H98.9375C96.3008 38.25 94.25 36.1992 94.25 33.5625C94.25 31.2188 96.3008 28.875 98.9375 28.875H101.281ZM16.0273 100.945C17.7852 98.8945 20.7148 98.8945 22.4727 100.945L33.3125 111.492L43.8594 100.945C45.6172 98.8945 48.5469 98.8945 50.3047 100.945C52.3555 102.703 52.3555 105.633 50.3047 107.391L39.7578 117.938L50.3047 128.777C52.3555 130.535 52.3555 133.465 50.3047 135.223C48.5469 137.273 45.6172 137.273 43.8594 135.223L33.3125 124.676L22.4727 135.223C20.7148 137.273 17.7852 137.273 16.0273 135.223C13.9766 133.465 13.9766 130.535 16.0273 128.777L26.5742 117.938L16.0273 107.391C13.9766 105.633 13.9766 102.703 16.0273 100.945ZM14.5625 28.875H52.0625C54.4062 28.875 56.75 31.2188 56.75 33.5625C56.75 36.1992 54.4062 38.25 52.0625 38.25H14.5625C11.9258 38.25 9.875 36.1992 9.875 33.5625C9.875 31.2188 11.9258 28.875 14.5625 28.875ZM98.9375 103.875H136.438C138.781 103.875 141.125 106.219 141.125 108.562C141.125 111.199 138.781 113.25 136.438 113.25H98.9375C96.3008 113.25 94.25 111.199 94.25 108.562C94.25 106.219 96.3008 103.875 98.9375 103.875ZM98.9375 122.625H136.438C138.781 122.625 141.125 124.969 141.125 127.312C141.125 129.949 138.781 132 136.438 132H98.9375C96.3008 132 94.25 129.949 94.25 127.312C94.25 124.969 96.3008 122.625 98.9375 122.625Z" fill="#C4C4C4"/>
</svg>
