<svg width="114" height="151" viewBox="0 0 114 151" fill="none" xmlns="http://www.w3.org/2000/svg">
<path d="M58.1719 107.391C64.0312 102.703 73.9922 104.461 77.5078 111.492C78.0938 112.664 79.2656 113.25 80.4375 113.25H85.125C87.4688 113.25 89.8125 115.594 89.8125 117.938C89.8125 120.574 87.4688 122.625 85.125 122.625H80.4375C75.75 122.625 71.3555 119.988 69.3047 115.887C68.4258 114.129 66.9609 113.836 66.082 113.836C65.4961 113.836 64.0312 114.129 63.1523 115.594L61.1016 120.281C60.2227 121.746 58.7578 122.625 56.707 122.625C56.707 122.625 56.707 122.625 56.4141 122.625C54.6562 122.625 52.8984 121.16 52.3125 119.695L47.625 104.754L44.4023 114.129C42.6445 119.402 37.957 122.625 32.3906 122.625H28.875C26.2383 122.625 24.1875 120.574 24.1875 117.938C24.1875 115.594 26.2383 113.25 28.875 113.25H32.3906C33.8555 113.25 35.0273 112.371 35.6133 111.199L40.8867 95.0859C41.7656 92.1562 44.4023 90.3984 47.625 90.3984C50.5547 90.3984 53.1914 92.1562 54.0703 95.0859L58.1719 107.391ZM21.8438 28.875C20.3789 28.875 19.5 27.9961 19.5 26.5312V21.8438C19.5 20.6719 20.3789 19.5 21.8438 19.5H54.6562C55.8281 19.5 57 20.6719 57 21.8438V26.5312C57 27.9961 55.8281 28.875 54.6562 28.875H21.8438ZM57 45.2812C57 46.7461 55.8281 47.625 54.6562 47.625H21.8438C20.3789 47.625 19.5 46.7461 19.5 45.2812V40.5938C19.5 39.4219 20.3789 38.25 21.8438 38.25H54.6562C55.8281 38.25 57 39.4219 57 40.5938V45.2812ZM108.855 29.4609C111.492 32.0977 113.25 35.9062 113.25 39.4219V136.98C113.25 144.598 106.805 150.75 99.1875 150.75H14.5195C6.90234 150.75 0.75 144.598 0.75 136.98V15.1055C0.75 7.19531 6.90234 1.04297 14.5195 0.75H74.5781C78.0938 0.75 81.9023 2.50781 84.5391 5.14453L108.855 29.4609ZM75.75 10.418V38.543H103.582C103.289 37.6641 102.996 36.7852 102.41 36.1992L77.8008 11.5898C77.2148 11.0039 76.3359 10.7109 75.75 10.418ZM103.875 136.98V47.625H73.4062C69.3047 47.625 66.375 44.6953 66.375 40.8867V10.125H14.5195C12.1758 10.125 9.83203 12.4688 9.83203 15.1055V136.98C9.83203 139.324 12.1758 141.668 14.5195 141.668H99.1875C101.531 141.668 103.875 139.324 103.875 136.98Z" fill="#C4C4C4"/>
</svg>
