<svg width="191" height="144" viewBox="0 0 191 144" fill="none" xmlns="http://www.w3.org/2000/svg">
<path d="M188.285 45.3828C190.922 49.7773 189.457 55.6367 185.062 58.2734L39.457 142.062C37.9922 142.941 36.2344 143.234 34.7695 143.234C31.5469 143.234 28.3242 141.77 26.5664 138.547L3.42188 98.4102C0.785156 93.7227 2.25 88.1562 6.64453 85.5195L152.25 1.73047C153.715 0.851562 155.473 0.265625 156.938 0.265625C160.16 0.265625 163.383 2.02344 165.141 4.95312L188.285 45.3828ZM34.7695 134.152L180.375 50.0703L156.938 9.64062L136.723 21.3594L149.613 43.625C150.199 44.7969 149.906 45.9688 148.734 46.8477L144.633 49.1914C143.461 49.7773 142.289 49.4844 141.41 48.3125L128.812 26.0469L112.406 35.4219L120.609 49.4844C121.195 50.6562 120.902 52.1211 119.73 52.707L115.922 55.0508C114.75 55.6367 113.285 55.3438 112.699 54.1719L104.496 40.1094L88.3828 49.4844L100.98 71.457C101.859 72.6289 101.273 74.0938 100.395 74.6797L96.293 77.0234C95.1211 77.6094 93.6562 77.3164 93.0703 76.1445L80.1797 53.8789L64.0664 63.2539L72.2695 77.3164C72.8555 78.4883 72.5625 79.9531 71.3906 80.5391L67.2891 82.8828C66.1172 83.4688 64.6523 83.1758 64.0664 82.0039L55.8633 67.9414L39.75 77.3164L52.6406 99.582C53.2266 100.754 52.9336 101.926 51.7617 102.805L47.6602 105.148C46.4883 105.734 45.0234 105.441 44.4375 104.27L31.5469 82.0039L11.332 93.7227L34.7695 134.152Z" fill="#C4C4C4"/>
</svg>
